<svg width="24" height="19" viewBox="0 0 24 19" fill="none" xmlns="http://www.w3.org/2000/svg">
<g clip-path="url(#clip0_129_2)">
<path d="M0 14.11C1.14 11.25 4.52 11.94 6.95 12.38C10.12 8.52004 11.15 0.720041 17.03 0.0400415C18.23 -0.0999585 20 0.130041 20.67 1.28004C21.99 3.56004 19.4 5.35004 17.25 4.70004C16.3 4.41004 16.15 3.13004 16.87 2.96004C17.85 2.73004 17.47 4.86004 19.07 3.93004C20.67 3.00004 19.49 0.990041 17.91 0.780041C13.45 0.190041 11.95 6.97004 10.11 9.87004L8.07 13.02C11.82 14.56 17.12 19.25 21.37 17.09C21.57 16.99 22.11 16.59 22.25 16.42C22.63 15.99 22.84 14.69 23.58 15.66V15.82C22.47 19.05 18.29 18.9 15.55 18.19C12.53 17.41 10 15.5 7.34 13.98C6.86 13.9 6.25 14.6 5.79 14.86C4 15.84 1.14 16.71 0 14.43V14.12L0 14.11ZM5.89 13.64C6.16 13.25 4.89 12.97 4.66 12.94C3.73 12.79 1.31 12.72 1.4 14.18C1.48 15.42 3.21 15.05 3.99 14.76C4.71 14.5 5.22 13.93 5.9 13.64H5.89Z" fill="black"/>
<path d="M17.14 6.29004C19.4 6.29004 21.61 7.61004 21.87 10C22.6 16.59 12.92 16.87 12.41 11.24C12.15 8.32004 14.3 6.29004 17.14 6.29004ZM16.4 6.85004C13.07 7.55004 12.91 13.9 16.59 14.66C21.67 15.71 21.79 5.73004 16.4 6.85004Z" fill="black"/>
</g>
<defs>
<clipPath id="clip0_129_2">
<rect width="23.58" height="18.61" fill="white"/>
</clipPath>
</defs>
</svg>
